<?xml version="1.0" standalone="no"?>
<!DOCTYPE svg PUBLIC "-//W3C//DTD SVG 20010904//EN"
 "http://www.w3.org/TR/2001/REC-SVG-20010904/DTD/svg10.dtd">
<svg version="1.0" xmlns="http://www.w3.org/2000/svg"
 width="139.000000pt" height="139.000000pt" viewBox="0 0 139.000000 139.000000"
 preserveAspectRatio="xMidYMid meet">

<g transform="translate(0.000000,139.000000) scale(0.100000,-0.100000)"
fill="#000000" stroke="none">
<path d="M541 1375 c-36 -8 -97 -30 -137 -49 -67 -32 -73 -37 -76 -68 -3 -32
-5 -33 -50 -36 -40 -3 -52 -9 -87 -47 -34 -37 -41 -52 -41 -85 0 -37 -2 -40
-29 -40 -26 0 -31 -7 -60 -70 -43 -98 -43 -100 29 -100 l60 0 0 -90 0 -90 -76
0 -77 0 6 -67 c8 -103 9 -103 83 -103 l64 0 0 -90 0 -90 -30 0 -30 0 27 -42
28 -42 3 42 3 41 87 3 87 3 0 88 0 87 522 0 521 0 6 37 c3 21 8 59 12 86 l6
47 -530 0 -531 0 -3 -82 -3 -83 -87 -3 -88 -3 0 86 0 85 84 0 c96 0 96 0 96
90 0 90 0 90 -96 90 l-84 0 0 85 0 86 88 -3 87 -3 3 -82 3 -83 515 0 516 0 -7
28 c-4 15 -19 52 -33 82 l-27 55 -485 3 -485 2 1 88 1 87 407 0 408 0 -32 27
c-45 37 -132 82 -210 108 -85 29 -266 36 -359 15z"/>
<path d="M328 268 l-3 -83 -45 -5 -44 -5 41 -33 c44 -35 51 -33 48 11 l-2 27
418 0 417 0 49 54 c26 30 56 68 66 85 l18 31 -480 0 -480 0 -3 -82z"/>
</g>
</svg>
