<?xml version="1.0" standalone="no"?>
<!DOCTYPE svg PUBLIC "-//W3C//DTD SVG 20010904//EN"
 "http://www.w3.org/TR/2001/REC-SVG-20010904/DTD/svg10.dtd">
<svg version="1.0" xmlns="http://www.w3.org/2000/svg"
 width="138.000000pt" height="137.000000pt" viewBox="0 0 138.000000 137.000000"
 preserveAspectRatio="xMidYMid meet">

<g transform="translate(0.000000,137.000000) scale(0.100000,-0.100000)"
fill="#000000" stroke="none">
<path d="M545 1356 c-247 -57 -442 -236 -517 -476 -33 -107 -33 -283 0 -390
67 -213 232 -382 447 -456 72 -26 93 -28 215 -28 122 0 143 2 215 28 284 98
475 360 475 651 0 291 -193 556 -475 651 -98 33 -264 42 -360 20z m-18 -219
c-3 -18 -29 -35 -44 -30 -17 7 -17 50 0 56 17 6 47 -11 44 -26z m383 3 c0 -27
-22 -41 -41 -27 -25 18 -26 25 -4 40 23 18 45 11 45 -13z m-200 -30 c0 -5 -9
-10 -21 -10 -11 0 -17 5 -14 10 3 6 13 10 21 10 8 0 14 -4 14 -10z m27 -42
c13 -12 23 -25 23 -30 0 -4 -31 -8 -70 -8 -38 0 -70 3 -70 7 0 4 10 17 22 30
27 29 65 29 95 1z m-307 -28 c0 -27 24 -25 38 3 l11 22 0 -22 c1 -29 31 -31
31 -3 0 11 5 20 10 20 6 0 10 -9 10 -20 0 -11 7 -20 15 -20 8 0 15 9 15 20 0
11 5 20 10 20 6 0 10 -16 10 -35 l0 -35 -85 0 -85 0 0 35 c0 19 5 35 10 35 6
0 10 -9 10 -20z m390 0 c0 -11 7 -20 15 -20 8 0 15 9 15 20 0 11 5 20 10 20 6
0 10 -9 10 -20 0 -27 28 -25 33 3 l4 22 8 -22 c9 -28 35 -30 35 -3 0 11 5 20
10 20 6 0 10 -16 10 -35 l0 -35 -85 0 -85 0 0 35 c0 19 5 35 10 35 6 0 10 -9
10 -20z m-50 -36 c0 -11 -18 -14 -80 -14 -62 0 -80 3 -80 14 0 11 18 14 80 14
63 0 80 -3 80 -14z m-201 -179 c-2 -144 -3 -155 -20 -155 -13 0 -19 7 -19 21
0 16 -5 20 -27 17 -20 -2 -28 -8 -27 -20 1 -11 -5 -18 -17 -18 -12 0 -19 7
-19 20 0 11 -4 20 -10 20 -11 0 -14 252 -3 263 3 4 37 7 75 7 l69 0 -2 -155z
m190 0 c-2 -144 -3 -155 -20 -155 -12 0 -19 7 -19 20 0 16 -7 20 -30 20 -23 0
-30 -4 -30 -20 0 -13 -7 -20 -19 -20 -17 0 -18 11 -20 155 l-2 155 71 0 71 0
-2 -155z m199 18 c2 -86 -1 -133 -8 -133 -5 0 -10 -9 -10 -20 0 -11 -6 -20
-14 -20 -7 0 -16 9 -19 20 -3 14 -14 20 -31 20 -19 0 -26 -5 -26 -20 0 -27
-26 -25 -34 3 -3 12 -6 82 -6 155 l0 133 73 -3 72 -3 3 -132z m-526 -165 c2
-17 10 -23 28 -23 18 0 26 6 28 23 2 12 10 22 17 22 7 0 15 -10 17 -22 5 -35
45 -37 54 -4 8 32 31 34 36 4 2 -17 10 -23 28 -23 18 0 26 6 28 23 4 28 42 31
42 3 0 -11 5 -23 10 -26 18 -11 50 6 50 26 0 10 7 19 15 19 8 0 15 -9 15 -19
0 -20 32 -37 50 -26 5 3 10 15 10 26 0 10 7 19 15 19 8 0 15 -9 15 -19 0 -20
32 -37 50 -26 5 3 10 15 10 26 0 12 7 19 20 19 16 0 20 -7 20 -35 l0 -35 -300
0 -300 0 0 35 c0 28 4 35 19 35 13 0 21 -8 23 -22z m561 -170 c4 -65 15 -136
31 -191 14 -48 26 -89 26 -92 0 -3 -52 -5 -115 -5 l-115 0 0 93 c0 109 -10
151 -47 189 -48 50 -122 47 -175 -9 -21 -22 -23 -36 -28 -146 l-5 -122 -117
-3 c-65 -1 -118 0 -118 3 0 2 12 44 26 92 16 55 27 126 31 191 l6 102 297 0
297 0 6 -102z m-231 -17 l33 -29 3 -146 c2 -99 0 -146 -7 -146 -6 0 -11 12
-11 28 -1 183 -6 240 -23 265 -31 48 -103 48 -134 0 -14 -22 -19 -54 -21 -160
-2 -73 -8 -133 -13 -133 -16 0 -11 257 6 290 34 67 111 81 167 31z m-82 -161
l0 -160 -30 0 c-27 0 -30 3 -30 30 0 22 4 28 15 24 8 -4 15 -1 15 5 0 6 -8 11
-17 11 -16 0 -18 9 -15 79 3 64 6 79 18 74 9 -3 14 1 14 12 0 11 -5 15 -15 11
-26 -10 -17 31 11 53 15 12 28 21 30 21 2 0 4 -72 4 -160z m57 138 c26 -24 32
-61 8 -52 -10 4 -15 0 -15 -10 0 -9 6 -16 13 -14 16 4 17 1 17 -82 0 -56 -3
-70 -15 -70 -8 0 -15 -5 -15 -11 0 -6 7 -9 15 -5 11 4 15 -2 15 -24 0 -27 -3
-30 -30 -30 l-30 0 0 160 c0 88 3 160 7 160 4 0 17 -10 30 -22z m-174 -264 c3
-3 3 -12 0 -20 -4 -11 -31 -14 -124 -14 -112 0 -119 1 -119 20 0 19 7 20 118
20 65 0 121 -3 125 -6z m497 -14 c0 -19 -7 -20 -119 -20 -110 0 -119 1 -124
20 -5 19 0 20 119 20 117 0 124 -1 124 -20z"/>
</g>
</svg>
